/* XPM */
static char *_e75eaa1d8fb49d7fe5d0062de223ca9LRZAMYib30YqQXxr[] = {
/* columns rows colors chars-per-pixel */
"32 32 3 1 ",
"  c #5A6988",
". c #8B9BB4",
"X c #C0CBDC",
/* pixels */
"XXXXXXXXXXXXXXXXXXXXXXXXXXXXXXXX",
"X   X   X   X   X   X   X   X   ",
"X.. X.. X.. X.. X.. X.. X.. X.. ",
"X.. X.. X.. X.. X.. X.. X.. X.. ",
"XXXXXXXXXXXXXXXXXXXXXXXXXXXXXXXX",
"X   X   X   X   X   X   X   X   ",
"X.. X.. X.. X.. X.. X.. X.. X.. ",
"X.. X.. X.. X.. X.. X.. X.. X.. ",
"XXXXXXXXXXXXXXXXXXXXXXXXXXXXXXXX",
"X   X   X   X   X   X   X   X   ",
"X.. X.. X.. X.. X.. X.. X.. X.. ",
"X.. X.. X.. X.. X.. X.. X.. X.. ",
"XXXXXXXXXXXXXXXXXXXXXXXXXXXXXXXX",
"X   X   X   X   X   X   X   X   ",
"X.. X.. X.. X.. X.. X.. X.. X.. ",
"X.. X.. X.. X.. X.. X.. X.. X.. ",
"XXXXXXXXXXXXXXXXXXXXXXXXXXXXXXXX",
"X   X   X   X   X   X   X   X   ",
"X.. X.. X.. X.. X.. X.. X.. X.. ",
"X.. X.. X.. X.. X.. X.. X.. X.. ",
"XXXXXXXXXXXXXXXXXXXXXXXXXXXXXXXX",
"X   X   X   X   X   X   X   X   ",
"X.. X.. X.. X.. X.. X.. X.. X.. ",
"X.. X.. X.. X.. X.. X.. X.. X.. ",
"XXXXXXXXXXXXXXXXXXXXXXXXXXXXXXXX",
"X   X   X   X   X   X   X   X   ",
"X.. X.. X.. X.. X.. X.. X.. X.. ",
"X.. X.. X.. X.. X.. X.. X.. X.. ",
"XXXXXXXXXXXXXXXXXXXXXXXXXXXXXXXX",
"X   X   X   X   X   X   X   X   ",
"X.. X.. X.. X.. X.. X.. X.. X.. ",
"X.. X.. X.. X.. X.. X.. X.. X.. "
};
