/* XPM */
static char *result[] = {
/* columns rows colors chars-per-pixel */
"34 42 25 1 ",
"  c black",
". c #162029",
"X c #12273D",
"o c gray23",
"O c #491D00",
"+ c #722D00",
"@ c #16314C",
"# c #354658",
"$ c #494949",
"% c #4A627A",
"& c gray48",
"* c #A54200",
"= c #BE6F4C",
"- c #FFD800",
"; c #E0A272",
": c #070091",
"> c #0C00B5",
", c #29598B",
"< c #0B00EF",
"1 c gray71",
"2 c #F3C598",
"3 c LightGray",
"4 c gray95",
"5 c white",
"6 c None",
/* pixels */
"6666666666666666666666666666666666",
"66666666666666666  66666 666666666",
"6666666666       ,,    6  66666666",
"66666666666 @,,,X X,,,,  ,  666666",
"666666666666 @,,,,  X,,@@X@ 666666",
"666666666666666@,,,,,,,,@@,, 66666",
"666666666666   X@,,,,,,,,,,, 66666",
"66666666666 XXXX@,,,,,,,,,,, 66666",
"6666666666 XXXX@,,,,,,,,,,,,  6666",
"66666666666 XX@,,,,,,,,,,,@@@X 666",
"666666666666    XX,,,,,,,,@XXX  66",
"66666666666 @@@@@@,,,@@,,,,X@ 6666",
"666666666  @@@XXX@,,@@2@@,,X@ 6666",
"66666666666 @@@XX@,@@222@,,XX 6666",
"666666666666 X@@X@@@2222@,XXX 6666",
"666666666666 @@@ @@  =;2@ X   6666",
"66666666666  @XX  @ 44      6 6666",
"666666666    XX  ;  44o=;  6666666",
"66666666  55 X ==; ;;22222 6666666",
"6666666 >5:5 X  == ;22222 66666666",
"666666 >>> : X   = ;;222= 66666666",
"666666 :>  > X 5:   =;2  666666666",
"666666 >:>  XX 555-    66666  6666",
"6666666  >> X 5555-5555 666 15 666",
"666666666     &&5555><<< 66 3    6",
"66666666666  $$&&55<:><:   13355 6",
"66666666666   $$&&<> ::::. 1355 66",
"6666666666 ....  $$ 6  >< . 135 66",
"6666666666     ..  6666  : .   666",
"666666666  ....  ..    66   666666",
"66666666  .##%#.   ..#% 6666666666",
"6666666  .#%%%##  ..#%%% 666666666",
"666666   #%%%%#  .  .#%% 666666666",
"66666   .#%%%#       ..# 666666666",
"6666  ...#%%#       ..#% 666666666",
"6666 ..#.##.   O ....%% 6666666666",
"666  .#%%.  6 OO ...#  66666666666",
"666  .#%%# 6 ++OO    6666666666666",
"66 OO .#  66 *+  66666666666666666",
"66 +OO  6666 * 6666666666666666666",
"6 **+O 66666  66666666666666666666",
"6 **  6666666666666666666666666666"
};
