/* XPM */
static char *d3bfde468f214c0dd73cb2a51c1c6ec0TFXEM8KL3SYVD7XJ[] = {
/* columns rows colors chars-per-pixel */
"32 32 10 1 ",
"  c None",
". c #6B7B98",
"X c #7A89A4",
"o c #7E8CA6",
"O c #8B9BB4",
"+ c #9CA8BE",
"@ c #9EACC2",
"# c #ADBACE",
"$ c #C0CBDC",
"% c #E9E5E1",
/* pixels */
"OOOO.#O@@@OO.+.OOOOOX.#OOOOO.#O ",
".OO.+O@OOOO.+$+.OOOX.##..OO.+O@ ",
"+..+#.OOOO.+$$$+.OX.##+#+..+#.O ",
"#$$##+....+OOOO$+..#$OOO#$$##+. ",
"X#$$$$####O$%$@O$++#O%$$X#$$$$# ",
"@X##OOO$$O$@@@@Oo#$O%@@@@X##OOO ",
"@O#O%$$O$oO@OOOO.$O$@@@@@O#O%$$ ",
"OX#O$@@@O$oOOOOO.$OO@OOOOX#O$@@ ",
"OX#O$@@@Oo#oOOO.#$.OOO@OOX#O$@@ ",
"X.#O$@O@OOo#...#$#+.OOOOX.#O$@O ",
".+#O$OOOOOo+###OOO#+.....+#O$OO ",
"+##XO@OOOX.+$OO%$@O#+++++##XO@O ",
"$$#.XOOXXX.+O$%@@@@O$$$$$$#.XOO ",
"OX$#......++O@@@@OOX$OOOOX$#... ",
"$OX$##+++#$#.O@OOOX.O%$%$OX$##+ ",
"@@O#$OOOOOOO#.OOOX.+O$@@@@O#$OO ",
"@@O#O%%$$$##O#....+O@@@@@@O#O%% ",
"OOX#O$@@@@OOX$$###$O@@@OOOX#O$@ ",
"@X.#O@@@OOOX.##OOO#.OO@O@X.#O@@ ",
"X.+$.OOOOX..+$O%$$O#.OXXX.+$.OO ",
".+$$+.....++#O$@@@@X#....+$$+.. ",
"+OOOO#++++###O$@@@@OX++++OOOO#+ ",
"$%$@OO##OOOO#.O@OOOOOO$O$%$@OO# ",
"@@@@@.$O%$$@O$.OOOO@@X$@@@@@@.$ ",
"OOOO.#O@@@OO.+.OOOOOX.#OOOOO.#O ",
".OO.+O@OOOO.+$+.OOOX.##..OO.+O@ ",
"+..+#.OOOO.+$$$+.OX.##+#+..+#.O ",
"#$$##+....+OOOO$+..#$OOO#$$##+. ",
"X#$$$$####O$%$@O$++#O%$$X#$$$$# ",
"@X##OOO$$O$@@@@Oo#$O%@@@@X##OOO ",
"@O#O%$$O$oO@OOOO.$O$@@@@@O#O%$$ ",
"OX#O$@@@O$oOOOOO.$OO@OOOOX#O$@@ "
};
