/* XPM */
static char *_c35e30415c84878c85a7d8574d86fd6xbwtmTboel4xcqXO[] = {
/* columns rows colors chars-per-pixel */
"16 16 215 2 ",
"   c None",
".  c #1D040E",
"X  c #1A0610",
"o  c #300B0E",
"O  c #35080E",
"+  c #2E0910",
"@  c #2E0C11",
"#  c #370D12",
"$  c #3E0D10",
"%  c #3C0D12",
"&  c #3E0F17",
"*  c #361512",
"=  c #371513",
"-  c #3D1311",
";  c #3A121B",
":  c #3D1518",
">  c #5A1F0D",
",  c #4B0F17",
"<  c #431117",
"1  c #491211",
"2  c #4B1114",
"3  c #451910",
"4  c #401E15",
"5  c #4A1C13",
"6  c #4B151A",
"7  c #471919",
"8  c #441D1F",
"9  c #491E1B",
"0  c #551017",
"q  c #501515",
"w  c #551616",
"e  c #561616",
"r  c #551C13",
"t  c #571A17",
"y  c #5D1E17",
"u  c #5C1E18",
"i  c #5E1E1C",
"p  c #661711",
"a  c #621814",
"s  c #6B1F16",
"d  c #6A1B18",
"f  c #4A2016",
"g  c #4A211C",
"h  c #4D271F",
"j  c #572514",
"k  c #5B2317",
"l  c #532B1F",
"z  c #582C1A",
"x  c #672614",
"c  c #652519",
"v  c #6D221A",
"b  c #692519",
"n  c #622B1F",
"m  c #65291E",
"M  c #772318",
"N  c #702919",
"B  c #762F19",
"V  c #742C1A",
"C  c #742D1E",
"Z  c #7F2C1B",
"A  c #6C3017",
"S  c #67301E",
"D  c #6F3219",
"F  c #74301F",
"G  c #74321E",
"H  c #7A321A",
"J  c #7F361C",
"K  c #7C391D",
"L  c #482821",
"P  c #552724",
"I  c #53342D",
"U  c #55362E",
"Y  c #5E3128",
"T  c #5A352D",
"R  c #5C2E31",
"E  c #5B3934",
"W  c #612723",
"Q  c #682C23",
"!  c #622928",
"~  c #632F2A",
"^  c #642E2A",
"/  c #612D2C",
"(  c #742D20",
")  c #623523",
"_  c #613026",
"`  c #693224",
"'  c #69362D",
"]  c #673A28",
"[  c #61382D",
"{  c #6B3D2A",
"}  c #753221",
"|  c #753623",
" . c #763820",
".. c #743B27",
"X. c #783D26",
"o. c #7B3E26",
"O. c #753828",
"+. c #673631",
"@. c #623B3D",
"#. c #6D3D39",
"$. c #724431",
"%. c #7A4332",
"&. c #7D4333",
"*. c #7B4731",
"=. c #7E4434",
"-. c #7F4637",
";. c #7B4D30",
":. c #754638",
">. c #6A3E40",
",. c #7E4B41",
"<. c #6C514C",
"1. c #843C17",
"2. c #85331C",
"3. c #80391E",
"4. c #8A3E1B",
"5. c #813C27",
"6. c #8C3E24",
"7. c #803F34",
"8. c #8A4119",
"9. c #8D461E",
"0. c #9F501F",
"q. c #A14B18",
"w. c #844326",
"e. c #854227",
"r. c #80422A",
"t. c #83462A",
"y. c #874529",
"u. c #8B482D",
"i. c #8A482E",
"p. c #8B4A2F",
"a. c #8E4F2C",
"s. c #984726",
"d. c #944B27",
"f. c #954E24",
"g. c #92462C",
"h. c #954E29",
"j. c #934D2C",
"k. c #964C2C",
"l. c #9A4829",
"z. c #9D4C2C",
"x. c #874C31",
"c. c #874E36",
"v. c #984C32",
"b. c #945534",
"n. c #985232",
"m. c #985431",
"M. c #AD5125",
"N. c #A05128",
"B. c #A85A2C",
"V. c #AF5B2F",
"C. c #B1582A",
"Z. c #A55434",
"A. c #AA5B30",
"S. c #A95B32",
"D. c #AE5F30",
"F. c #AC5E36",
"G. c #AA632D",
"H. c #AF623C",
"J. c #B26337",
"K. c #B9683C",
"L. c #C46329",
"P. c #C1763F",
"I. c #D0783E",
"U. c #915540",
"Y. c #945C44",
"T. c #9A5E46",
"R. c #885E52",
"E. c #A35D40",
"W. c #9C6A44",
"Q. c #99664D",
"!. c #A86643",
"~. c #A5664C",
"^. c #B56942",
"/. c #B56C42",
"(. c #B66E46",
"). c #B57147",
"_. c #B6724A",
"`. c #B0704D",
"'. c #B97048",
"]. c #AC7355",
"[. c #BD795A",
"{. c #9D746A",
"}. c #A16D61",
"|. c #C97443",
" X c #C87446",
".X c #C27848",
"XX c #CD7A4B",
"oX c #C9784C",
"OX c #DE853E",
"+X c #B2826E",
"@X c #BD856A",
"#X c #D78349",
"$X c #DF8E4B",
"%X c #C98451",
"&X c #C1835A",
"*X c #CA8259",
"=X c #D58853",
"-X c #D18559",
";X c #D48558",
":X c #D18A5A",
">X c #DE915C",
",X c #C28A6E",
"<X c #CD946A",
"1X c #D69064",
"2X c #D8946B",
"3X c #D99A6F",
"4X c #D79773",
"5X c #D99B72",
"6X c #DF9C78",
"7X c #D8A07B",
"8X c #BC9D8E",
"9X c #DCA581",
"0X c #E1B797",
"qX c #EFD6A5",
"wX c #E6C9B6",
/* pixels */
"                                ",
"                I.>X$X5XC./.    ",
"  0X,XJ T.   X1XM.s m.=.| B !.G.",
"6X[.~.b i.@X*XZ.a W a.P.V.w.D.9.",
";XoXZ , @.t 6 >.-.W.E.l.wXN.t d.",
"L.|.0 ! ; 8X+XC c.2.~ 8 %.w.1.Q.",
"XXM e ^ %Xr.+.qXj.p.#X0. .c <X..",
"2Xd i K.v Q b.} k #Xv.# : :.b.H ",
"4Xp 5.-Xe ; P < C N.k . 3 o.h.Y ",
"3X( W g.(.o.s.'.6.q @ . ;.q.f.$.",
"6X}..Xg.{./ 2 R R.K k o - &Xn ) ",
"9X).@.U.N `.c 4.6 O <.[ z 8.E I ",
"=XJ.].i.' 1 $ $ # n Y.B K > T L ",
"-XH.A.F.A.B.n.).G O.` _ 9 5 A U ",
"  _.t.X.x.&.y.*.{ g f * * 4 G j ",
"          ] l h                 "
};
