/* XPM */
static char *_8d9d14e01e04c4fc6eb882bc4cd2f19gs05uSsrBmnm1taP[] = {
/* columns rows colors chars-per-pixel */
"32 32 225 2 ",
"   c None",
".  c #18030F",
"X  c #14030F",
"o  c #1F0811",
"O  c #2A060E",
"+  c #2C090D",
"@  c #340C0F",
"#  c #35070E",
"$  c #34110D",
"%  c #3D120E",
"&  c #2A0D13",
"*  c #360A12",
"=  c #3C0B13",
"-  c #390616",
";  c #391313",
":  c #381617",
">  c #3F1B25",
",  c #3C2323",
"<  c #48180E",
"1  c #5B190E",
"2  c #54180D",
"3  c #430B13",
"4  c #4C0B14",
"5  c #5B0D14",
"6  c #520E14",
"7  c #441314",
"8  c #4C1313",
"9  c #421A14",
"0  c #4A1B19",
"q  c #48181A",
"w  c #531314",
"e  c #5B1413",
"r  c #531B15",
"t  c #591C15",
"y  c #551E18",
"u  c #5D1C19",
"i  c #551419",
"p  c #63180E",
"a  c #631E15",
"s  c #681B13",
"d  c #4D231A",
"f  c #44211B",
"g  c #5C2415",
"h  c #53221B",
"j  c #5D241C",
"k  c #572718",
"l  c #6B2313",
"z  c #6D2B13",
"x  c #65231A",
"c  c #6C241B",
"v  c #652C1C",
"b  c #6B2B1C",
"n  c #642413",
"m  c #732513",
"M  c #73291A",
"N  c #792915",
"B  c #6D311D",
"V  c #793114",
"C  c #75321B",
"Z  c #7B351C",
"A  c #7D3B1D",
"S  c #753418",
"D  c #77290F",
"F  c #4B1920",
"G  c #482822",
"H  c #552B23",
"J  c #5C2B24",
"K  c #582525",
"L  c #4E312A",
"P  c #54342D",
"I  c #5A3322",
"U  c #642B23",
"Y  c #6A2E22",
"T  c #602C29",
"R  c #732921",
"E  c #653325",
"W  c #6E3628",
"Q  c #64392B",
"!  c #6B3A2B",
"~  c #6A3626",
"^  c #713522",
"/  c #7C3522",
"(  c #733926",
")  c #7E3B23",
"_  c #773A2C",
"`  c #643836",
"'  c #773E37",
"]  c #7A4126",
"[  c #6C4338",
"{  c #7A4A36",
"}  c #794335",
"|  c #7E513B",
" . c #684644",
".. c #7B4E42",
"X. c #7E584B",
"o. c #705A58",
"O. c #7E5E60",
"+. c #852C15",
"@. c #833415",
"#. c #8C3E17",
"$. c #83341A",
"%. c #853C1B",
"&. c #8C3A1A",
"*. c #873915",
"=. c #9A3D14",
"-. c #943A17",
";. c #862E20",
":. c #843C25",
">. c #8A3D27",
",. c #8A431D",
"<. c #9A451B",
"1. c #94461A",
"2. c #AA4B1E",
"3. c #A1471C",
"4. c #A7501E",
"5. c #B2591C",
"6. c #83432D",
"7. c #894329",
"8. c #8C4B2E",
"9. c #874423",
"0. c #944924",
"q. c #9C4B2C",
"w. c #954726",
"e. c #93522F",
"r. c #9E572C",
"t. c #844A32",
"y. c #874E3A",
"u. c #8A4D33",
"i. c #9E4E31",
"p. c #8C5538",
"a. c #945332",
"s. c #9B5735",
"d. c #A44C25",
"f. c #AD5623",
"g. c #A4542D",
"h. c #A45A29",
"j. c #AD592B",
"k. c #B85C26",
"l. c #A35532",
"z. c #A85A34",
"x. c #B35E33",
"c. c #9B603C",
"v. c #B8652C",
"b. c #AC613B",
"n. c #AA6533",
"m. c #B46234",
"M. c #BB6838",
"N. c #B87237",
"B. c #AC7339",
"V. c #C6652B",
"C. c #C77229",
"Z. c #C26D3D",
"A. c #C46831",
"S. c #C8723C",
"D. c #D57330",
"F. c #865242",
"G. c #82564E",
"H. c #965948",
"J. c #895D52",
"K. c #8F614D",
"L. c #9B6849",
"P. c #8A6459",
"I. c #976D5E",
"U. c #9E735D",
"Y. c #A2674D",
"T. c #AA6844",
"R. c #BA6D45",
"E. c #A97448",
"W. c #B2734C",
"Q. c #BC754C",
"!. c #B97647",
"~. c #AB785A",
"^. c #B87756",
"/. c #A56D54",
"(. c #977364",
"). c #9A7B78",
"_. c #8E6C67",
"`. c #A37A6B",
"'. c #C26E40",
"]. c #C67747",
"[. c #CD7B4B",
"{. c #DF8338",
"}. c #AE816D",
"|. c #BC8969",
" X c #BB9779",
".X c #B08A7A",
"XX c #D78747",
"oX c #CD8356",
"OX c #C3825F",
"+X c #CD8C5F",
"@X c #D48455",
"#X c #D88C58",
"$X c #CA965A",
"%X c #DA9E57",
"&X c #E59851",
"*X c #C98B66",
"=X c #C9946C",
"-X c #DC9363",
";X c #D59A68",
":X c #DA9C73",
">X c #D79873",
",X c #D3926C",
"<X c #E29764",
"1X c #D7AE70",
"2X c #ECA769",
"3X c #E8B66C",
"4X c #E4A579",
"5X c #B0978A",
"6X c #DBA887",
"7X c #DEB085",
"8X c #C6A698",
"9X c #DCB497",
"0X c #E4AC88",
"qX c #E8B997",
"wX c #E7B68D",
"eX c #D8BBAB",
"rX c #EFC3A4",
"tX c #E8C3A8",
"yX c #F4D6B9",
"uX c #EBC6AE",
"iX c #FAE7BD",
"pX c #F1DCCD",
"aX c #F2DED1",
"sX c #F8E5D4",
"dX c #F9E1CC",
/* pixels */
"                                                                ",
"                                            &X:X                ",
"                                -XS.-X#X{.k.0X3.-.b.Q.          ",
"        yXpX].W.E.        -X>X].S.oXA.d.-.m <.m n ].9.%.n.      ",
"      qXQ.aXaX%.C y.^.Q.'.A.qX:X2.-.$.5 L.h.J.n.} u t =XA.1.    ",
"    qXd.d.l.0.x t :._ tXaXd.+.+.e 5 w K.v v.x.].x.h.} h.@.,.E.  ",
"    0X6Xl.'.g.4 - - ~.c >.c 3 4 _ 3 q ~ 6X=.wXtX4.j.!.Z  XQ.e.  ",
"    -Xk.A.'.;.5 0  .( 4 K F 3 G.F.y. XE.Y.c @.8XXX<.Z j 9 *.U.  ",
"    V.0X0X=.5 4 t.p.* ).5X(.y.i.= c '.&.^.2 = S &.*.l ,.S { K.  ",
"    V.[.[.+.5 i u F : _.eX.Xz.M - U ,X+.x = @ v p V z %.z } p.  ",
"    V.<X].+.6 J j 7  .Y.|.u = ' T.XX%Xe /.&.h 5X .9X@.@.g g (   ",
"  4XS.k.N 5 w u L.m.M.u p.K 8XiXf.z.3XU XXXXC.S (.V U.*X0.Q E   ",
"  <XrXqXj.R 6 w qX1XA.!.=X1X} r.c w $X:.[.x.$.x B.|.s.7XD ~.}.  ",
"  &XrX+X;.s w 7.Z.N i p.oXJ Y :.Z y N.2XOXq.7 % 9 h y.*..Xz I.  ",
"  [.@Xd.c b.i uXq.c i K j ! x F q - D.].l 8 $ $ c.,.8.!.r.@.I.  ",
"  2XrX3.s >.i '.Z.a 7 = ; 7 7 7 - w.aXd.M $ X % ] n Y.8.%.! !   ",
"  [.^.>.p / a #X3.>.U # * :XW.K 7 x.x.N 3 G . X.] N.4.,.e.H !   ",
"  4X:Xk.s :.Y $.+.*X=.H.!.i.|.].0.3._ 6 + , X L.+X5.<.r.,.|     ",
"  4XsX+.^ <.z P.Z / >.^ g.Y a s.' F.K F ~ h.9 d 1.,.!.<.z I     ",
"  4XsXi.' ~.t._ G.U R _ / u w v T ` ..* l.0.9 9 S *X=X0.B v     ",
"  <Xk.>Xc t.,X&.2XK.P.` 8 3 = O.(.5X|.%.r 7 O + 9 Q.<.Y + I     ",
"  2X[.uXx `.S M ^.d.l ,Xf.C W.C.$.j v t & : O . & h.$.P P I     ",
"  0X6XpX].:. ._.S a j g.b 8 B b 0 q + O o.s.s.] N.1.2 X.$ L     ",
"    #X[.j.T.OXj.8 G.h # 3 # $ = # O 0 %.) V a b 2 < < H  .P     ",
"    oX'.v.l.R.l.OX[.s.a.v.l r 9.b.r 7.$.V z U E j k < d $ L     ",
"      Q.^.q.z.i.z.q.>.v.-.e.0.R.0.^ W E E W Q 9 ; @ A ,.< P     ",
"        ^.v.s.a.7.n.%.0.S z 9.s.^ T J H U d 9 $ ; d 9 A g <     ",
"          6.p.Y ~ ! y.} u.8.~ { $X0 9 f 9 9       G $ v z g     ",
"              1Xh H [ { v W ( E 9 9 f                           ",
"                      h     G                                   ",
"                                                                ",
"                                                                "
};
