/* XPM */
static char *_731be259e174ecce1c8192034f9bfffAD2QfxnPWka9keDD[] = {
/* columns rows colors chars-per-pixel */
"19 23 9 1 ",
"  c None",
". c #372840",
"X c #B3785D",
"o c #D6A57A",
"O c #4D6A94",
"+ c #5D8BB3",
"@ c #E6CC8A",
"# c #99C2DB",
"$ c #FAFAC3",
/* pixels */
"                   ",
"                   ",
"                   ",
"                   ",
"                   ",
"                   ",
"                   ",
"                   ",
"                   ",
"                   ",
"     .....         ",
"    .@$$$@..       ",
"   .oo@@@oo...     ",
"   .XoooooX.+#.    ",
"   .XXXXXX...O+..  ",
"    .............. ",
"   .. .. . . ..  . ",
"  .. .. .   . ..   ",
"                   ",
"                   ",
"                   ",
"                   ",
"                   "
};
