/* XPM */
static char *result[] = {
/* columns rows colors chars-per-pixel */
"32 32 12 1 ",
"  c #181425",
". c #3F2832",
"X c #743F39",
"o c #63C74D",
"O c #FEAE34",
"+ c #FEE761",
"@ c #124E89",
"# c #2CE8F5",
"$ c #8B9BB4",
"% c #C0CBDC",
"& c white",
"* c None",
/* pixels */
"********************************",
"********************************",
"****************  **************",
"*************** %$ *************",
"*************** %$ *************",
"*******&&+&++++++++++++&&+&*****",
"*******OXXXXXXXXXXXXXXXXXXO*****",
"*******O..................O*****",
"*******O..................O*****",
"*******O..................O*****",
"*******OXX..............XXO*****",
"*******OXXXXXXXXXXXXXXXXXXO*****",
"*******OXXXXXXXXXXXXXXXXXXO*****",
"*******OOOOOOOOOOOOOOOOOOOO*****",
"*******OXXXXXXXXXXXXXXXXXXO*****",
"*******+XX.....&+o&++...XX+*****",
"*******+...&&&#++++++&O...+*****",
"*******& O@OOOO&OOOOOOOo  &*****",
"*******&&+&++++++++++++&+&&*****",
"*******&..................&*****",
"*******&..................&*****",
"*******+.XXXXXXXXXXXXXXXX.+*****",
"*******+.XXXXXXXXXXXXXXXX.+*****",
"*******+.XXXXXXXXXXXXXXXX.+*****",
"******* +XXXXXXXXXXXXXXXX+ *****",
"*******O ++&&&&&&&&&&&+&+ O*****",
"********************************",
"********************************",
"********************************",
"********************************",
"********************************",
"********************************"
};
