/* XPM */
static char *result[] = {
/* columns rows colors chars-per-pixel */
"32 32 97 2 ",
"   c #0F0B0D",
".  c #100B0E",
"X  c #130C0F",
"o  c #140D0F",
"O  c #150C11",
"+  c #150E10",
"@  c #160D12",
"#  c #170D12",
"$  c #170D13",
"%  c #180D13",
"&  c #1A0E14",
"*  c #1B0E15",
"=  c #1C0F15",
"-  c #1C0E16",
";  c #1D0F17",
":  c #1E0F17",
">  c #191012",
",  c #1B1113",
"<  c #1C1213",
"1  c #1D1214",
"2  c #1E1215",
"3  c #1E1315",
"4  c #210F19",
"5  c #220F1A",
"6  c #201416",
"7  c #211516",
"8  c #231617",
"9  c #201018",
"0  c #211119",
"q  c #22101A",
"w  c #23121A",
"e  c #25131B",
"r  c #241618",
"t  c #261718",
"y  c #27131C",
"u  c #28131D",
"i  c #2B171D",
"p  c #261818",
"a  c #2A191B",
"s  c #2E1B1D",
"d  c #2F1B1E",
"f  c #2F1D1C",
"g  c #2F1C1D",
"h  c #301C1E",
"j  c #311C1E",
"k  c #321C1F",
"l  c #33201F",
"z  c #2A1220",
"x  c #2B1320",
"c  c #2C1320",
"v  c #2E1520",
"b  c #301621",
"n  c #301622",
"m  c #311722",
"M  c #321722",
"N  c #331B22",
"B  c #341E20",
"V  c #341924",
"C  c #361A24",
"Z  c #391E25",
"A  c #3C1E26",
"S  c #3C1E27",
"D  c #3A2422",
"F  c #3B2522",
"G  c #3D2623",
"H  c #3E2623",
"J  c #3B2224",
"K  c #3C2224",
"L  c #3E2325",
"P  c #402526",
"I  c #412228",
"U  c #432329",
"Y  c #43232A",
"T  c #432429",
"R  c #452728",
"E  c #45242A",
"W  c #46252B",
"Q  c #4A292B",
"!  c #4B2D2A",
"~  c #4A282C",
"^  c #4D2A2D",
"/  c #502C2F",
"(  c #512D2F",
")  c #522E2F",
"_  c #532F2F",
"`  c #532F30",
"'  c #573132",
"]  c #583232",
"[  c #583530",
"{  c #623836",
"}  c #623936",
"|  c #6A3F39",
" . c #6F423B",
".. c #72443D",
"X. c #73453D",
"o. c #794840",
"O. c None",
/* pixels */
"O.O.O.O.O.O.O.O.O.O.O.O.O.8 8 8 8 8 O.O.O.O.O.O.O.O.O.O.O.O.O.O.",
"O.O.O.O.O.      l ! ! D 7 } } } } } < H ! ! ! l       O.O.O.O.O.",
"O.      [ ....H g ` ` P 1 ( ( ( ( ( > R ` ` ` g H ....[       O.",
"   .o.p L ( ( s r K K k $ $ @   # $ $ B K K K r s ( ( L p o. .  ",
"   .{ 6 3 r r > $ 4 * 2 E E I q T E E , - 4 4 $ > r r 3 6 {  .  ",
"  | _ 1 . q c ; d ( U V ( ( ^ z / ( ( M W ( ( d ; c q . 1 _ |   ",
"O.F g + 5 Y ( A S ( U V ( ( ^ z / ( ( M W ( ( A S ( U 5 + g F O.",
"   .' 1 5 Y ( A S ( U V ( ( ^ z / ( ( M W ( ( A S ( U 5 1 '  .  ",
"   .' 1 5 Y ( A S ( U V ( ( ^ z / ( ( M W ( ( A S ( U 5 1 '  .  ",
"   .' 1 5 Y ( A S ( U V ( ( ^ z / ( ( M W ( ( A S ( U 5 1 '  .  ",
"   .' 1 5 Y ( A S ( U V ( ( ^ z / ( ( M W ( ( A S ( U 5 1 '  .  ",
"   .' 1 5 Y ( A S ( U V ( ( ^ z / ( ( M W ( ( A S ( U 5 1 '  .  ",
"O.f t o 5 Y ( A S ( U V ( ( ^ z / ( ( M W ( ( A S ( U 5 o t f O.",
"   .' 1 5 Y ( A S ( U V ( ( ^ z / ( ( M W ( ( A S ( U 5 1 '  .  ",
"   .' 1 5 Y ( A S ( U V ( ( ^ z / ( ( M W ( ( A S ( U 5 1 '  .  ",
"   .' 1 5 Y ( A S ( U V ( ( ^ z / ( ( M W ( ( A S ( U 5 1 '  .  ",
"   .' 1 5 Y ( A S ( U V ( ( ^ z / ( ( M W ( ( Z N Q U 5 1 '  .  ",
"   .' 1 5 Y ( A S ( U V ( ( ^ z / ( ( M W ( J h B j i 5 1 '  .  ",
"   .' 1 5 Y ( A S ( U V ( ( ^ z / ( ( M W ( a : x 9 % 5 1 '  .  ",
"O.f t o 5 Y ( A S ( U V ( ( ^ z / ( ( M W ( I e $ w m 5 o t f O.",
"   .' 1 5 Y ( A S ( U V ( ( ^ z / ( ( M W ( ( A C ~ U 5 1 '  .  ",
"   .' 1 5 Y ( A S ( U V ( ( ^ z / ( ( M W ( ( A S ( U 5 1 '  .  ",
"   .' 1 5 Y ( A S ( U V ( ( ^ z / ( ( M W ( ( A S ( U 5 1 '  .  ",
"   .' 1 5 Y ( A S ( U V ( ( ^ z / ( ( M W ( ( A S ( U 5 1 '  .  ",
"   .' 1 5 Y ( A S ( U V ( ( ^ z / ( ( M W ( ( A S ( U 5 1 '  .  ",
"   .' 1 5 Y ( A S ( U V ( ( ^ z / ( ( M W ( ( A S ( U 5 1 '  .  ",
"   .' 1 5 Y ( A S ( U V ( ( ^ z / ( ( M W ( ( A S ( U 5 1 '  .  ",
"O.f t o 5 Y ( A S ( U V ( ( ^ z / ( ( M W ( ( A S ( U 5 o t f O.",
"   .' 1 5 Y ( A S ( U V ( ( ^ z / ( ( M W ( ( A S ( U 5 1 '  .  ",
"   .' 1 5 Y ( A S ( U V ( ( ^ z / ( ( M W ( ( A S ( U 5 1 '  .  ",
"G X.' 1 5 Y ( A S ( U V ( ( ^ z / ( ( M W ( ( A S ( U 5 1 ' X.G ",
"] ] ) 1 X y n 0 0 n y = n n v O b n n & u n n 0 0 n y X 1 ) ] ] "
};
