/* XPM */
static char *a919c6d35a944348c40a86fd3ae23484aStyo2gdln6OMaPb[] = {
/* columns rows colors chars-per-pixel */
"34 34 31 1 ",
"  c None",
". c #171523",
"X c #733D3B",
"o c #67386C",
"O c #265C42",
"+ c #3A4466",
"@ c #A32732",
"# c #BF4830",
"$ c #F77622",
"% c #FF0042",
"& c #E43D44",
"* c #B9704F",
"= c #D77643",
"- c #F6757A",
"; c #3E8948",
": c #63C64F",
"> c #FDAE35",
", c #C28569",
"< c #E4A570",
"1 c #FEE861",
"2 c #104E89",
"3 c #5B6986",
"4 c #5A6988",
"5 c #B44F87",
"6 c #0099DC",
"7 c #2EE8F7",
"8 c #8B9BB5",
"9 c #E8B796",
"0 c #EBD4AB",
"q c #C0CCDC",
"w c #ECF0F1",
/* pixels */
"                                  ",
" &;0;@27273-q,;-;0:0%9.,;&6+X54w9 ",
" 6$X;*qO3,>-=@-9#$XO44.;@:95.O724 ",
" %#:+6.;qq@1;65+0&:+3.0$+2#-%*>wO ",
" 3q=62q*++3o>..#@;:.<65@O#=O96;%: ",
" =--.3@=%X$0=8X.3q4>=#q%#72.5o%9. ",
" %:1,*5=7*qqO2<$&4878;201.,-45w4O ",
" ;O7-&=$1-0=0645*.q0.1*860$&qqq;q ",
" 8%9,X+:@,::*=##.45>w;5$X5840>>84 ",
" q>@5+#5-=.$%2;$#7.o01;45=2%*>9+6 ",
" >.*79#27q146w;7Xo66#71,.;7o*++*o ",
" w0@w2&:;4+>20X08,o7*%12oo1;9$q42 ",
" :%%*O18.>9&&9w@<9oo+$1*77-;8#+=+ ",
" 32%q3=*O=X;w9545=o>;#8w@.8w&*9q, ",
" 13$q%<o,8=+$.-O8&-8&<.>+4+o5o<O0 ",
" 9-$16>o..&9:3<97#6-4>1<=$O$:*@>6 ",
" -1<5$2;>o,97660;5:7..@$8*q=4X6<; ",
" %50058,88>5#-;.$.>#-q&0353Oq;4&o ",
" &2&2.O>427O.59:@;.44OX$#9-@=->,3 ",
" 2@3&$81Ow>*%-#2+$0.3+:&0+56;1@qq ",
" +$86$->:%;69O=#O@56<.:;@#..>o3++ ",
" >258&o>.9%o5.27#%q#=>4q3.X8=0$X% ",
" #,,OX#,O4w54-,.102;8784&$<2Oqq*7 ",
" -438>78q;qqq&$068*1.0q.*5460=0-1 ",
" 0><.92O48>>0485X$5;w>54.##=*::,@ ",
" :=6;4%96+9>*%2=54;10o.7#$;2%$.=- ",
" 0038;6=o*++*o7;.,17#66oX7;w641q7 ",
" .;,&>2&24q$9;1oo21%*7o,80X02>+4; ",
" 98;==7q+=+#8;-77*1$+oo9<@w9&&9>. ",
" .:<@2%:,q9*&w8.@w8#;>o=5459w;X=O ",
" *.7o#>70O<o5o+4+>.<&8-&8O-.$+=8, ",
" ,:<4.@46>@*:$O$=<1>4-6#79<3:9&.. ",
" X1o0@8q;<6X4=q*8$@..7:5;06679,o> ",
"                                  "
};
