/* XPM */
static char *result[] = {
/* columns rows colors chars-per-pixel */
"32 32 3 1 ",
"  c #3E734E",
". c #7AB055",
"X c #4D9262",
/* pixels */
"XXXXXXXXX.XXXXXXXXXX..XX.XXXXXXX",
"XXXXXXXXX.XXXXXXXXXXX. ..XXXXXXX",
"XXXXXXXXX.X.XXXXXXXXX .. XXXXXXX",
"XXXXXXXXX.X.XXXXXXXXXX  XXXXXXXX",
"XXXXXXXXXXX.XXXXXXXXXXXXXXXXXXXX",
"XXXXXXXXXXXXXXXXXXXXXXXXXXXXXXXX",
"XXXXXXXXXXXXXXXXXXXXXXXXXXXXXXXX",
"XXX.XXXXXXXXXXXXXXXXXXXXXXXXXXXX",
"XX.X.XXXXXXXXXXXXXXXXXXXXXXXXXXX",
"XXX.XXXXXXXXXXXXXXXXXXXXXXXXXXXX",
"XXXXXXXXXXXXXXXXXXXXXXXXXXXXXXXX",
"XXXXXXXXXXXXXXXXXXXXXXXXXXXXXXXX",
"XXXXXXXXXXXXXXXXXXXXXXXXXXXXXXXX",
"XXXXXXXXXXXXX XXXXXXXXXXXXXXXXXX",
"XXXXXXXXXXXX X XXXXXXXXXXXXXXXXX",
"XXXXXXXXXXXXX XXXXXXXXXXXXXXXXXX",
"XXXXXXXXXXXXXXXXXXXXXXXXXXXX.XXX",
"XXXXXXXXXXXXXXXXXXXXXXXXXX.X.XXX",
"XXXXXXXXXXXXXXXXXXXXXXXXXX.X.XXX",
"XXXXXXXXXXXXXXXXXXXXXXXXXX.XXXXX",
"XXXXXXXXXXXXXXXXXXXXXXXXXXXXXXXX",
"XXXXXXXXXXXXXXXX.XXXXXXXXXXXXXXX",
"XXXXXXXXXXXXXXX.X.XXXXXXXXXXXXXX",
"XXXXXXXXXXXXXXXX.XXXXXXXXXXXXXXX",
"XXXXXXXXXXXXXXXXXXXXXXXXXXXXXXXX",
"XXXXXXXXXXXXXXXXXXXXXXXXX XXXXXX",
"XXXXXXXXXXXXXXXXXXXXXXXX X XXXXX",
"XXXXXXXXXXXXXXXXXXXXXXXXX XXXXXX",
"XXXXXXXXXXXXXXXXXXXXXXXXXXXXXXXX",
"XXXXXXXXXXXXXXXXXXXXXXXXXXXXXXXX",
"XXXXXXXXXXXXXXXXXXXX.XXXXXXXXXXX",
"XXXXXXXXXXXXXXXXXXXX..XXXXXXXXXX"
};
