/* XPM */
static char *f9ab97a81228437ce84205005b73f567Jbfn9KAMzQuDSyEL[] = {
/* columns rows colors chars-per-pixel */
"108 92 25 1 ",
"  c None",
". c #25131A",
"X c #3D253B",
"o c #523B40",
"O c #5C6B53",
"+ c #606060",
"@ c #802954",
"# c #D01946",
"$ c #895A45",
"% c #9B4C51",
"& c #BF704D",
"* c #E84444",
"= c #8A961F",
"- c #80A53F",
"; c #D1851E",
": c #CCF61F",
"> c #9A8571",
", c #E1A171",
"< c #96C641",
"1 c #BBC44E",
"2 c #FFD569",
"3 c #A7ACBA",
"4 c #DFBBB3",
"5 c #E6DECA",
"6 c #CAE6F5",
/* pixels */
"                                                                                                            ",
"                                                                                                            ",
"                                                           ..     ..           .  .          .          .   ",
"                       .      .         .  ....  .         .+.. ..+.          ..  ..        .+... .. ...+.  ",
"      .    .         . ..    .. .      .4..****..4.         .oo.oo.          .X....X.        .ooo.**.ooo.   ",
"   . .4....4. .      . .o.  .o. .      .,.*####*.,.          ..*..           .X:##:X.         ...2##2...    ",
"  .*..>****>..*.    .*. .X..X. .*.     ..*##XX##*..          .:#:.         .  .#@@#.  .         .@##@.      ",
"  .#*..:##:..*#.    .#*..:**:..*#.     .*##X<<X##*.          .@#@.        .6.  .##.  .6.      ..3.@@.3..    ",
"  .#@*.#XX#.*@#.    .#o*.o##o.*o#.     .##X<:=<X##.         .*.@.*.       .3. ..@@.. .3.     .33.#..#.33.   ",
"  .#@@..##..@@#.    .#Xo.=::=.oX#.     .@#.<==<.#@.     .. .**#.#**. ..   .3..******..3.     ...3.@@.3...   ",
"  .#@.**@@**.@#.    .#X.*.XX.*.X#.     .@#@.<<.@#@.     .6..#@*#*@#..6.   .3.*##**##*.3.     .#.+3..3+.#.   ",
"  .#.#@#**#@#.#.    .#.##*..*##.#.     .X@#@..@#@X.      .3.#.@*@.#.3.    .3.#@#..#@#.3.    .*@..+33+..@*.  ",
"   ..@.@##@.@..     .#.#o****o#.#.      .X@#@@#@X.        .#..XXX..#.     ...@..++..@...    .**..++++..**.  ",
"    .*..@@..*.      .#.#.o##oX#.#.       .@.@#@.X.         . .+3+. .      .#.. .... ..#.     .. .X..X. ..   ",
"     ..####..        . .#.oo.#. .        .X.@.@..           .#XXX#.        .. .#@@#. ..         .#@@#.      ",
"      .#@@#.            .#XX#.           .X.X.X.            .#...#.           .#..#.           .*@..@*.     ",
"     .*#..#*.           .#..#.            . . .             .@. .@.          .#.  .#.          .@.  .@.     ",
"    .+o.  .o+.         .o.  .o.                            .XX. .XX.         .X.  .X.         .XX.  .XX.    ",
"                                                                                                            ",
"                                                                                                            ",
"                                                                                                            ",
"                                                                                                            ",
"                                                                                                .    .      ",
"                                                                             .      .          .+.  .+.     ",
"                                                             .  .           .+.    .+.         .o....o.     ",
"                      . .    . .         ...  ...           .o..o.         .o.      .o.        .X*@@*X.     ",
"                      ....  ....        .+oX..Xo+.          .X@@X.         .o...  ...o.         .o@@o.      ",
"       .  .            .+o..o+.          ..*@@*..         . .*@@*. .       .XXXX..XXXX.          .XX.       ",
"       ....             ..@@..          .@@.@@.@@.       .@. .XX. .@.       ...*oo*...        . .@..@. .    ",
"      .*@@*.           ..#@@#..        .@@@@..@@@@.      .o@.@..@.@o.       .@@.oo.@@.       .3.@@@@@@.3.   ",
"     . .oo. .         .@@.XX.@@.       .@@X@@@@X@@.      .o.@@@@@@.o.       .@o@..@o@.       .+@Xo@@oX@+.   ",
"    .@.@..@.@.        .@X@..@X@.       .&X.X@@X.X&.      ..@.X@@X.@..       .@.o@@o.@.       .@..XooX..@.   ",
"   .@.@o@@o@.@.       .@.X@@X.@.       .@X.$;;$.X@.      .o. .oo. .o.        ...oo...         .  .XX.  .    ",
"   .o..oXXo..o.        . .XX. .         .. .XX. ..        . .@XX@. .          .@XX@.            .@XX@.      ",
"    .  ....  .          .@..@.            .@..@.            .@..@.            .o..o.            .@..@.      ",
"       .  .            .X.  .X.          .X.  .X.          .@.  .@.          .X.  .X.          .X.  .X.     ",
"                                                                                                            ",
"                                                                                                            ",
"                                                              ..               .  .           .        .    ",
"                                            ..               .oo.             .5..5.         .5........5.   ",
"       .  .              ....              .oo.             .oooo.        ..  .,..,.  ..      .,%oooo%,.    ",
"      .,..,.           ..oooo..           .oXXo.            .2oo2.        .5...%oo%...5.       ..2oo2..     ",
"      .%oo%.          .%%.oo.%%.      . . .2XX2. . .        .oXXo.         .,%oXooXo%,.         .XXXX.      ",
"      .oooo.         .,%.2oo2.%,.    .5.5..XXXX..5.5.       .oXXo.          ...2oo2...         ...XX...     ",
"     ..2oo2..       ..,,5.oo.5,,..   .,.,.o.XX.o.,.,.      .ooXXoo.        .oo.XooX.oo.       .ooX..Xoo.    ",
"    .,.oXXo.,.      .o....XX....o.   .%.%.Xo..oX.%.%.     .oooXXooo.      .ooX.XXXX.Xoo.     .oXooXXooXo.   ",
"    .%X.XX.X%.      .oo.oo..oo.oo.    ...X.oooo.X...      .oooooooo.      .oX.o.XX.o.Xo.     .X.XooooX.X.   ",
"    .Xoo..ooX.       .3o.oooo.o3.       ...XooX...        .o.oooo.o.      .o..Xo..oX..o.     .3..XXXX..3.   ",
"    .o.oooo.o.        ...XooX...           .XX.           .%.XooX.%.      .oo..XooX..oo.     .o. .XX. .o.   ",
"    .oo.oo.oo.          .oXXo.            ..XX..          .,.XXXX.,.       .. .XXXX. ..      .. .oXXo. ..   ",
"     ...++...          .ooXXoo.          .ooXXoo.         .5.X..X.5.         .oX..Xo.           .oXXo.      ",
"      .oXXo.           .oX..Xo.          .o....o.         ..o.  .o..         .o....o.          .oX..Xo.     ",
"      .X..X.           .o.  .o.          .o.  .o.          .o.  .o.          .o.  .o.          .o.  .o.     ",
"     .X.  .X.         .X.    .X.        .X.    .X.        .X.    .X.        .oX.  .Xo.        ...    ...    ",
"                                                                                                            ",
"                                                                                                            ",
"                                                                                                            ",
"                                                                                                            ",
"                       .      .                                           .            .                    ",
"                      .+.    .+.                                         .5.  .    .  .5.                   ",
"                . .    .+.  .+.    . .                                   .+. .5.  .5. .+.                   ",
"               .. .. . .o....o. . .. ..                                . .o5.X+X..X+X.5o. .                 ",
"              .@. .+.+..X.@@.X..+.+. .@.                              .5.oX+XXooooooXX+Xo.5.                ",
"              .@.  .+o...@@@@...o+.  .@.                              .+XoXoXoo*..*ooXoXoX+.                ",
"             .@@. .+o...XX@@XX...o+. .@@.                            .5oXoXoXo*.:-.*oXoXoXo5.               ",
"             .@@. .+o...@*XX*@...o+. .@@.                          . .+Xoo*oo*o.--.o*oo*ooX+. .             ",
"             .@@. .+oX..X@@@@X..Xo+. .@@.                         .5.XoX*o**o**@..@**o**o*XoX.5.            ",
"            .@@o@. .ooX.XX@@XX.Xoo. .@o@@.                        .+XXoX*..*o**#@@#**o*..*XoXX+.            ",
"            .@ooo@.......XXXX.......@ooo@.                        .ooXo*.:-.*o******o*.:-.*oXoo.            ",
"            .@oXo..#.@...XooX...@.#..oXo@.                         .oX*o.--.o*@....@*o.--.o*Xo.             ",
"           .@@oX.;..*.@@o....o@@.*..;.Xo@@.                         .X**@..@*..OOOO..*@..@**X.              ",
"           .@ooXX..2.@@@@oooo@@@@.2..XXoo@.                         .*o*#@@#.O<1111<O.#@@#*o*.              ",
"           .@oXXX.#.*.@@@@@@@@@@.*.#.XXXo@.                          .*..@#.O<1::==1<O.#@..*.               ",
"           .@oXX.#;#..@@@@@@@@@@..#;#.XXo@.                         .*.:-.#.<1=::===1<.#.:-.*.              ",
"           .@oX.#;2;#..@@@XX@@@..#;2;#.Xo@.                         .*.--.#.<1======1<.#.--.*.              ",
"           .@o.#;2;2;#.XXX@@XXX.#;2;2;#.o@.                         .o@..@#.O<1====1<O.#@..@o.              ",
"           .@.#;2;2;2;#.@@@@@@.#;2;2;2;#.@.                          .#@@##@.O<1111<O.@##@@#.               ",
"           .@.#;*2*2*;#.X....X.#;*2*2*;#.@.                          .%#@###@..OOOO..@###@#%.               ",
"           .@.#*o;o;o*#..$;;$..#*o;o;o*#.@.                          .X%@###@@@....@@@###@%X.               ",
"           .@o.#ooooo#..........#ooooo#.o@.                          .X@@%##@#@@@@@@#@##%@@X.               ",
"           .@@X.#o*o#..@@oooo@@..#o*o#.X@@.                          .XX@@%#@#@####@#@#%@@XX.               ",
"            .@oX.###..@@@@oo@@@@..###.Xo@.                           ..X@X@%@%@####@%@%@X@X..               ",
"            .@oXX....@@@ooXXoo@@@....XXo@.                            ..@X.@@@@%%%%@@@@.X@..                ",
"             .@oXXXo.@@oX....Xo@@.oXXXo@.                              .XX.@.X@@@@@@X.@.XX.                 ",
"             .@oXXo..ooX.    .Xoo..oXXo@.                              .X..@.X.@..@.X.@..X.                 ",
"              .@Xo.  .oX.    .Xo.  .oX@.                                . .@...@..@...@. .                  ",
"              .@o.    XXX.  .XX.    .o@.                                  .X. .@..@. .X.                    ",
"               .@.     .X.  .X.     .@.                                   .X. .X..X. .X.                    ",
"                ..     .X.  .X.     ..                                     .   .  .   .                     ",
"                      .oo.  .oo.                                                                            ",
"                                                                                                            ",
"                                                                                                            "
};
