/* XPM */
static char *_cf804aafb9f4a64e2b448d5dd708281Rqh5PHcnFozCLsPE[] = {
/* columns rows colors chars-per-pixel */
"35 33 3 1 ",
"  c None",
". c #D8DADF",
"X c white",
/* pixels */
"  XXX.XXXXXXXXXXXXXXXXXXXXXXXX.XXX ",
"  XXX.XXXXXXXXXXXXXXXXXXXXXXXX.XXX ",
"  XX...XXXXXXXXXXXXXXXXXXXXXX...XX ",
"  ...X........................X... ",
"  XX...XXXXXXXXXXXXXXXXXXXXXX...XX ",
"  XXX.XXXXXXXXXXXXXXXXXXXXXXXX.XXX ",
"  XXX.XXXXXXXXXXXXXXXXXXXXXXXX.XXX ",
"  XXX.XXXXXXXXXXXXXXXXXXXXXXXX.XXX ",
"  XXX.XXXXXXXXXXXXXXXXXXXXXXXX.XXX ",
"  XXX.XXXXXXXXXXXXXXXXXXXXXXXX.XXX ",
"  XXX.XXXXXXXXXXXXXXXXXXXXXXXX.XXX ",
"  XXX.XXXXXXXXXXXXXXXXXXXXXXXX.XXX ",
"  XXX.XXXXXXXXXXXXXXXXXXXXXXXX.XXX ",
"  XXX.XXXXXXXXXXXXXXXXXXXXXXXX.XXX ",
"  XXX.XXXXXXXXXXXXXXXXXXXXXXXX.XXX ",
"  XXX.XXXXXXXXXXXXXXXXXXXXXXXX.XXX ",
"  XXX.XXXXXXXXXXXXXXXXXXXXXXXX.XXX ",
"  XXX.XXXXXXXXXXXXXXXXXXXXXXXX.XXX ",
"  XXX.XXXXXXXXXXXXXXXXXXXXXXXX.XXX ",
"  XXX.XXXXXXXXXXXXXXXXXXXXXXXX.XXX ",
"  XXX.XXXXXXXXXXXXXXXXXXXXXXXX.XXX ",
"  XXX.XXXXXXXXXXXXXXXXXXXXXXXX.XXX ",
"  XXX.XXXXXXXXXXXXXXXXXXXXXXXX.XXX ",
"  XXX.XXXXXXXXXXXXXXXXXXXXXXXX.XXX ",
"  XXX.XXXXXXXXXXXXXXXXXXXXXXXX.XXX ",
"  XXX.XXXXXXXXXXXXXXXXXXXXXXXX.XXX ",
"  XXX.XXXXXXXXXXXXXXXXXXXXXXXX.XXX ",
"  XX...XXXXXXXXXXXXXXXXXXXXXX...XX ",
"  ...X........................X... ",
"  XX...XXXXXXXXXXXXXXXXXXXXXX...XX ",
"  XXX.XXXXXXXXXXXXXXXXXXXXXXXX.XXX ",
"  XXX.XXXXXXXXXXXXXXXXXXXXXXXX.XXX ",
"                                   "
};
